/* XPM */
static char *a2d6a00d5a614b2bacf3e4a75885c516[] = {
/* columns rows colors chars-per-pixel */
"64 64 24 1 ",
"  c #190D0F",
". c #190D10",
"X c #1B0D10",
"o c #1C0E10",
"O c #1C0E11",
"+ c #1D0F12",
"@ c #1F0F13",
"# c #1E1013",
"$ c #211114",
"% c #221216",
"& c #241417",
"* c #291519",
"= c #2E161B",
"- c #30181C",
"; c #331B1F",
": c #34181D",
"> c #36181E",
", c #38181E",
"< c #381A1F",
"1 c #3E1E24",
"2 c #402026",
"3 c #44242A",
"4 c #46262C",
"5 c #4A2A30",
/* pixels */
"&@  &&      @&&&&@  &&      @&&&&@  &&      @&&&&@  &&      @&&&",
"&144411<&<1443<<&144411<&<1443<<&144411<&<1443<<&144411<&<1443<<",
"&<--::--#<-:::--&<--::--#<-:::--&<--::--#<-:::--&<--::--#<-:::--",
"&<-&--&o#<-&---&&<-&--&o#<-&---&&<-&--&o#<-&---&&<-&--&o#<-&---&",
"&###o .o.O@@   @&###o .o.O@@   @&###o .o.O@@   @&###o .o.O@@   @",
"<<&1445411&11<<<<<&1445411&11<<<<<&1445411&11<<<<<&1445411&11<<<",
"=*#<-,----;2&---=*#<-,----;2&---=*#<-,----;2&---=*#<-,----;2&---",
"*&#<-->-*&&<-&-&*&#<-->-*&&<-&-&*&#<-->-*&&<-&-&*&#<-->-*&&<-&-&",
"&&   @####&&&&&&&&   @####&&&&&&&&   @####&&&&&&&&   @####&&&&&&",
"&<<<&111&1<<#<<<&<<<&111&1<<#<<<&<<<&111&1<<#<<<&<<<&111&1<<#<<<",
"&<--&<--&1--#<--&<--&<--&1--#<--&<--&<--&1--#<--&<--&<--&1--#<--",
"&<&-&<--#<-&#<--&<&-&<--#<-&#<--&<&-&<--#<-&#<--&<&-&<--#<-&#<--",
"@@    &#X+$X%@&&@@    &#X+$X%@&&@@    &#X+$X%@&&@@    &#X+$X%@&&",
";1141<<<#<14433<;1141<<<#<14433<;1141<<<#<14433<;1141<<<#<14433<",
"&<:-----&<-----&&<:-----&<-----&&<:-----&<-----&&<:-----&<-----&",
"&<----###<-&&#&&&<----###<-&&#&&&<----###<-&&#&&&<----###<-&&#&&",
"&@  &&      @&&&&@  &&      @&&&&@  &&      @&&&&@  &&      @&&&",
"&144411<&<1443<<&144411<&<1443<<&144411<&<1443<<&144411<&<1443<<",
"&<--::--#<-:::--&<--::--#<-:::--&<--::--#<-:::--&<--::--#<-:::--",
"&<-&--&o#<-&---&&<-&--&o#<-&---&&<-&--&o#<-&---&&<-&--&o#<-&---&",
"&###o .o.O@@   @&###o .o.O@@   @&###o .o.O@@   @&###o .o.O@@   @",
"<<&1445411&11<<<<<&1445411&11<<<<<&1445411&11<<<<<&1445411&11<<<",
"=*#<-,----;2&---=*#<-,----;2&---=*#<-,----;2&---=*#<-,----;2&---",
"*&#<-->-*&&<-&-&*&#<-->-*&&<-&-&*&#<-->-*&&<-&-&*&#<-->-*&&<-&-&",
"&&   @####&&&&&&&&   @####&&&&&&&&   @####&&&&&&&&   @####&&&&&&",
"&<<<&111&1<<#<<<&<<<&111&1<<#<<<&<<<&111&1<<#<<<&<<<&111&1<<#<<<",
"&<--&<--&1--#<--&<--&<--&1--#<--&<--&<--&1--#<--&<--&<--&1--#<--",
"&<&-&<--#<-&#<--&<&-&<--#<-&#<--&<&-&<--#<-&#<--&<&-&<--#<-&#<--",
"@@    &#X+$X%@&&@@    &#X+$X%@&&@@    &#X+$X%@&&@@    &#X+$X%@&&",
";1141<<<#<14433<;1141<<<#<14433<;1141<<<#<14433<;1141<<<#<14433<",
"&<:-----&<-----&&<:-----&<-----&&<:-----&<-----&&<:-----&<-----&",
"&<----###<-&&#&&&<----###<-&&#&&&<----###<-&&#&&&<----###<-&&#&&",
"&@  &&      @&&&&@  &&      @&&&&@  &&      @&&&&@  &&      @&&&",
"&144411<&<1443<<&144411<&<1443<<&144411<&<1443<<&144411<&<1443<<",
"&<--::--#<-:::--&<--::--#<-:::--&<--::--#<-:::--&<--::--#<-:::--",
"&<-&--&o#<-&---&&<-&--&o#<-&---&&<-&--&o#<-&---&&<-&--&o#<-&---&",
"&###o .o.O@@   @&###o .o.O@@   @&###o .o.O@@   @&###o .o.O@@   @",
"<<&1445411&11<<<<<&1445411&11<<<<<&1445411&11<<<<<&1445411&11<<<",
"=*#<-,----;2&---=*#<-,----;2&---=*#<-,----;2&---=*#<-,----;2&---",
"*&#<-->-*&&<-&-&*&#<-->-*&&<-&-&*&#<-->-*&&<-&-&*&#<-->-*&&<-&-&",
"&&   @####&&&&&&&&   @####&&&&&&&&   @####&&&&&&&&   @####&&&&&&",
"&<<<&111&1<<#<<<&<<<&111&1<<#<<<&<<<&111&1<<#<<<&<<<&111&1<<#<<<",
"&<--&<--&1--#<--&<--&<--&1--#<--&<--&<--&1--#<--&<--&<--&1--#<--",
"&<&-&<--#<-&#<--&<&-&<--#<-&#<--&<&-&<--#<-&#<--&<&-&<--#<-&#<--",
"@@    &#X+$X%@&&@@    &#X+$X%@&&@@    &#X+$X%@&&@@    &#X+$X%@&&",
";1141<<<#<14433<;1141<<<#<14433<;1141<<<#<14433<;1141<<<#<14433<",
"&<:-----&<-----&&<:-----&<-----&&<:-----&<-----&&<:-----&<-----&",
"&<----###<-&&#&&&<----###<-&&#&&&<----###<-&&#&&&<----###<-&&#&&",
"&@  &&      @&&&&@  &&      @&&&&@  &&      @&&&&@  &&      @&&&",
"&144411<&<1443<<&144411<&<1443<<&144411<&<1443<<&144411<&<1443<<",
"&<--::--#<-:::--&<--::--#<-:::--&<--::--#<-:::--&<--::--#<-:::--",
"&<-&--&o#<-&---&&<-&--&o#<-&---&&<-&--&o#<-&---&&<-&--&o#<-&---&",
"&###o .o.O@@   @&###o .o.O@@   @&###o .o.O@@   @&###o .o.O@@   @",
"<<&1445411&11<<<<<&1445411&11<<<<<&1445411&11<<<<<&1445411&11<<<",
"=*#<-,----;2&---=*#<-,----;2&---=*#<-,----;2&---=*#<-,----;2&---",
"*&#<-->-*&&<-&-&*&#<-->-*&&<-&-&*&#<-->-*&&<-&-&*&#<-->-*&&<-&-&",
"&&   @####&&&&&&&&   @####&&&&&&&&   @####&&&&&&&&   @####&&&&&&",
"&<<<&111&1<<#<<<&<<<&111&1<<#<<<&<<<&111&1<<#<<<&<<<&111&1<<#<<<",
"&<--&<--&1--#<--&<--&<--&1--#<--&<--&<--&1--#<--&<--&<--&1--#<--",
"&<&-&<--#<-&#<--&<&-&<--#<-&#<--&<&-&<--#<-&#<--&<&-&<--#<-&#<--",
"@@    &#X+$X%@&&@@    &#X+$X%@&&@@    &#X+$X%@&&@@    &#X+$X%@&&",
";1141<<<#<14433<;1141<<<#<14433<;1141<<<#<14433<;1141<<<#<14433<",
"&<:-----&<-----&&<:-----&<-----&&<:-----&<-----&&<:-----&<-----&",
"&<----###<-&&#&&&<----###<-&&#&&&<----###<-&&#&&&<----###<-&&#&&"
};
