/* XPM */
static char *ea8cbc566e4d4e54adb5001667dfa2d2[] = {
/* columns rows colors chars-per-pixel */
"64 64 65 1 ",
"  c #07070B",
". c gray3",
"X c #090909",
"o c #09090B",
"O c #08080C",
"+ c #09090C",
"@ c #08080D",
"# c #09090D",
"$ c #08080E",
"% c #09090E",
"& c #08080F",
"* c #09090F",
"= c #0A0A0F",
"- c gray6",
"; c #070711",
": c #090912",
"> c #090913",
", c #0C0C13",
"< c #0D0D14",
"1 c #0D0D15",
"2 c #0F0F14",
"3 c #0E0E15",
"4 c #0F0F15",
"5 c #0E0E16",
"6 c #0F0F16",
"7 c #0F0F17",
"8 c #0F0F18",
"9 c #0Fiiiaw8q4024d0F1A",
"0 c #0F0F1C",
"q c #0F0F1D",
"w c #110E1D",
"e c #101010",
"r c #101011",
"t c #111111",
"y c #101014",
"u c #101015",
"i c #101017",
"p c #111117",
"a c #101018",
"s c #101019",
"d c #111119",
"f c #10101A",
"g c #11111A",
"h c #10101B",
"j c #12121B",
"k c #11111C",
"l c #10101D",
"z c #13131C",
"x c #10101E",
"c c #10101F",
"v c #101023",
"b c #171124",
"n c #1A1427",
"m c #1B1528",
"M c #1E182B",
"N c #211B2E",
"B c #221C2F",
"V c #231D30",
"C c #241E31",
"Z c #30244A",
"A c #362A50",
"S c #3A2E54",
"D c #3C3056",
"F c #40345A",
"G c #463A60",
/* pixels */
"OOOOOOOOOOeOOOOOOOOOOOOOOOeOOOOOOOOOOOOOOOeOOOOOOOOOOOOOOOeOOOOO",
"Op%%=eqa@AaalODOOp%%=eqa@AaalODOOp%%=eqa@AaalODOOp%%=eqa@AaalODO",
"O*SDD53%DMj1ODMOO*SDD53%DMj1ODMOO*SDD53%DMj1ODMOO*SDD53%DMj1ODMO",
"O%MN5reGMM6a$7aOO%MN5reGMM6a$7aOO%MN5reGMM6a$7aOO%MN5reGMM6a$7aO",
"OoMsyy<a-<h:M9sOOoMsyy<a-<h:M9sOOoMsyy<a-<h:M9sOOoMsyy<a-<h:M9sO",
"Oau>o%@%a3*asa3OOau>o%@%a3*asa3OOau>o%@%a3*asa3OOau>o%@%a3*asa3O",
"OtksDDDD2#D3@+&OOtksDDDD2#D3@+&OOtksDDDD2#D3@+&OOtksDDDD2#D3@+&O",
"Oa.<amMbzoMOZDMOOa.<amMbzoMOZDMOOa.<amMbzoMOZDMOOa.<amMbzoMOZDMO",
"O%DM7gCMs6l@mM6OO%DM7gCMs6l@mM6OO%DM7gCMs6l@mM6OO%DM7gCMs6l@mM6O",
"OaaxsiaB8<2;M3aOOaaxsiaB8<2;M3aOOaaxsiaB8<2;M3aOOaaxsiaB8<2;M3aO",
"Oag76a90a%5va:aOOag76a90a%5va:aOOag76a90a%5va:aOOag76a90a%5va:aO",
"O%=a66a6%D7s@FMOO%=a66a6%D7s@FMOO%=a66a6%D7s@FMOO%=a66a6%D7s@FMO",
"ODSN7-w3XSMasy4OODSN7-w3XSMasy4OODSN7-w3XSMasy4OODSN7-w3XSMasy4O",
"OaMMc Ma%VMMsf9OOaMMc Ma%VMMsf9OOaMMc Ma%VMMsf9OOaMMc Ma%VMMsf9O",
"OiaMda,7*nMMMs7OOiaMda,7*nMMMs7OOiaMda,7*nMMMs7OOiaMda,7*nMMMs7O",
"OOOOOOOOOOOOOOOOOOOOOOOOOOOOOOOOOOOOOOOOOOOOOOOOOOOOOOOOOOOOOOOO",
"OOOOOOOOOOeOOOOOOOOOOOOOOOeOOOOOOOOOOOOOOOeOOOOOOOOOOOOOOOeOOOOO",
"Op%%=eqa@AaalODOOp%%=eqa@AaalODOOp%%=eqa@AaalODOOp%%=eqa@AaalODO",
"O*SDD53%DMj1ODMOO*SDD53%DMj1ODMOO*SDD53%DMj1ODMOO*SDD53%DMj1ODMO",
"O%MN5reGMM6a$7aOO%MN5reGMM6a$7aOO%MN5reGMM6a$7aOO%MN5reGMM6a$7aO",
"OoMsyy<a-<h:M9sOOoMsyy<a-<h:M9sOOoMsyy<a-<h:M9sOOoMsyy<a-<h:M9sO",
"Oau>o%@%a3*asa3OOau>o%@%a3*asa3OOau>o%@%a3*asa3OOau>o%@%a3*asa3O",
"OtksDDDD2#D3@+&OOtksDDDD2#D3@+&OOtksDDDD2#D3@+&OOtksDDDD2#D3@+&O",
"Oa.<amMbzoMOZDMOOa.<amMbzoMOZDMOOa.<amMbzoMOZDMOOa.<amMbzoMOZDMO",
"O%DM7gCMs6l@mM6OO%DM7gCMs6l@mM6OO%DM7gCMs6l@mM6OO%DM7gCMs6l@mM6O",
"OaaxsiaB8<2;M3aOOaaxsiaB8<2;M3aOOaaxsiaB8<2;M3aOOaaxsiaB8<2;M3aO",
"Oag76a90a%5va:aOOag76a90a%5va:aOOag76a90a%5va:aOOag76a90a%5va:aO",
"O%=a66a6%D7s@FMOO%=a66a6%D7s@FMOO%=a66a6%D7s@FMOO%=a66a6%D7s@FMO",
"ODSN7-w3XSMasy4OODSN7-w3XSMasy4OODSN7-w3XSMasy4OODSN7-w3XSMasy4O",
"OaMMc Ma%VMMsf9OOaMMc Ma%VMMsf9OOaMMc Ma%VMMsf9OOaMMc Ma%VMMsf9O",
"OiaMda,7*nMMMs7OOiaMda,7*nMMMs7OOiaMda,7*nMMMs7OOiaMda,7*nMMMs7O",
"OOOOOOOOOOOOOOOOOOOOOOOOOOOOOOOOOOOOOOOOOOOOOOOOOOOOOOOOOOOOOOOO",
"OOOOOOOOOOeOOOOOOOOOOOOOOOeOOOOOOOOOOOOOOOeOOOOOOOOOOOOOOOeOOOOO",
"Op%%=eqa@AaalODOOp%%=eqa@AaalODOOp%%=eqa@AaalODOOp%%=eqa@AaalODO",
"O*SDD53%DMj1ODMOO*SDD53%DMj1ODMOO*SDD53%DMj1ODMOO*SDD53%DMj1ODMO",
"O%MN5reGMM6a$7aOO%MN5reGMM6a$7aOO%MN5reGMM6a$7aOO%MN5reGMM6a$7aO",
"OoMsyy<a-<h:M9sOOoMsyy<a-<h:M9sOOoMsyy<a-<h:M9sOOoMsyy<a-<h:M9sO",
"Oau>o%@%a3*asa3OOau>o%@%a3*asa3OOau>o%@%a3*asa3OOau>o%@%a3*asa3O",
"OtksDDDD2#D3@+&OOtksDDDD2#D3@+&OOtksDDDD2#D3@+&OOtksDDDD2#D3@+&O",
"Oa.<amMbzoMOZDMOOa.<amMbzoMOZDMOOa.<amMbzoMOZDMOOa.<amMbzoMOZDMO",
"O%DM7gCMs6l@mM6OO%DM7gCMs6l@mM6OO%DM7gCMs6l@mM6OO%DM7gCMs6l@mM6O",
"OaaxsiaB8<2;M3aOOaaxsiaB8<2;M3aOOaaxsiaB8<2;M3aOOaaxsiaB8<2;M3aO",
"Oag76a90a%5va:aOOag76a90a%5va:aOOag76a90a%5va:aOOag76a90a%5va:aO",
"O%=a66a6%D7s@FMOO%=a66a6%D7s@FMOO%=a66a6%D7s@FMOO%=a66a6%D7s@FMO",
"ODSN7-w3XSMasy4OODSN7-w3XSMasy4OODSN7-w3XSMasy4OODSN7-w3XSMasy4O",
"OaMMc Ma%VMMsf9OOaMMc Ma%VMMsf9OOaMMc Ma%VMMsf9OOaMMc Ma%VMMsf9O",
"OiaMda,7*nMMMs7OOiaMda,7*nMMMs7OOiaMda,7*nMMMs7OOiaMda,7*nMMMs7O",
"OOOOOOOOOOOOOOOOOOOOOOOOOOOOOOOOOOOOOOOOOOOOOOOOOOOOOOOOOOOOOOOO",
"OOOOOOOOOOeOOOOOOOOOOOOOOOeOOOOOOOOOOOOOOOeOOOOOOOOOOOOOOOeOOOOO",
"Op%%=eqa@AaalODOOp%%=eqa@AaalODOOp%%=eqa@AaalODOOp%%=eqa@AaalODO",
"O*SDD53%DMj1ODMOO*SDD53%DMj1ODMOO*SDD53%DMj1ODMOO*SDD53%DMj1ODMO",
"O%MN5reGMM6a$7aOO%MN5reGMM6a$7aOO%MN5reGMM6a$7aOO%MN5reGMM6a$7aO",
"OoMsyy<a-<h:M9sOOoMsyy<a-<h:M9sOOoMsyy<a-<h:M9sOOoMsyy<a-<h:M9sO",
"Oau>o%@%a3*asa3OOau>o%@%a3*asa3OOau>o%@%a3*asa3OOau>o%@%a3*asa3O",
"OtksDDDD2#D3@+&OOtksDDDD2#D3@+&OOtksDDDD2#D3@+&OOtksDDDD2#D3@+&O",
"Oa.<amMbzoMOZDMOOa.<amMbzoMOZDMOOa.<amMbzoMOZDMOOa.<amMbzoMOZDMO",
"O%DM7gCMs6l@mM6OO%DM7gCMs6l@mM6OO%DM7gCMs6l@mM6OO%DM7gCMs6l@mM6O",
"OaaxsiaB8<2;M3aOOaaxsiaB8<2;M3aOOaaxsiaB8<2;M3aOOaaxsiaB8<2;M3aO",
"Oag76a90a%5va:aOOag76a90a%5va:aOOag76a90a%5va:aOOag76a90a%5va:aO",
"O%=a66a6%D7s@FMOO%=a66a6%D7s@FMOO%=a66a6%D7s@FMOO%=a66a6%D7s@FMO",
"ODSN7-w3XSMasy4OODSN7-w3XSMasy4OODSN7-w3XSMasy4OODSN7-w3XSMasy4O",
"OaMMc Ma%VMMsf9OOaMMc Ma%VMMsf9OOaMMc Ma%VMMsf9OOaMMc Ma%VMMsf9O",
"OiaMda,7*nMMMs7OOiaMda,7*nMMMs7OOiaMda,7*nMMMs7OOiaMda,7*nMMMs7O",
"OOOOOOOOOOOOOOOOOOOOOOOOOOOOOOOOOOOOOOOOOOOOOOOOOOOOOOOOOOOOOOOO"
};
