/* XPM */
static char *_3b45717b607426cb6b3fd52e5b6a4f8[] = {
/* columns rows colors chars-per-pixel */
"64 64 215 2 ",
"   c #23362B",
".  c #20352C",
"X  c #20352D",
"o  c #23372D",
"O  c #21372E",
"+  c #27382A",
"@  c #23392C",
"#  c #23392D",
"$  c #23392E",
"%  c #22382F",
"&  c #23392F",
"*  c #24392D",
"=  c #253B2F",
"-  c #283C2D",
";  c #233930",
":  c #233931",
">  c #263B30",
",  c #273B31",
"<  c #243B32",
"1  c #253B32",
"2  c #263B32",
"3  c #253C32",
"4  c #253C33",
"5  c #273D32",
"6  c #273D33",
"7  c #273D34",
"8  c #283E31",
"9  c #283E34",
"0  c #283E35",
"q  c #293E36",
"w  c #2A3E36",
"e  c #2A3F36",
"r  c #284136",
"t  c #2A4037",
"y  c #2B4336",
"u  c #2F4334",
"i  c #2F4435",
"p  c #2F4436",
"a  c #2A4039",
"s  c #2B4139",
"d  c #2B4338",
"f  c #2B4339",
"g  c #2D413B",
"h  c #2C453A",
"j  c #2D453B",
"k  c #2E433D",
"l  c #2D453D",
"z  c #2E483B",
"x  c #2F4B3C",
"c  c #2F483E",
"v  c #304535",
"b  c #34463A",
"n  c #37473B",
"m  c #37483A",
"M  c #374E3B",
"N  c #324A3F",
"B  c #37493E",
"V  c #334D3D",
"C  c #374F3C",
"Z  c #354E3F",
"A  c #394C3E",
"S  c #42523F",
"D  c #2F4941",
"F  c #2D4B41",
"G  c #2F4D44",
"H  c #314B41",
"J  c #324B41",
"K  c #304B42",
"L  c #354F40",
"P  c #344E42",
"I  c #354E43",
"U  c #304E44",
"Y  c #3B4E41",
"T  c #3D4E43",
"R  c #325041",
"E  c #305042",
"W  c #325042",
"Q  c #335343",
"!  c #355342",
"~  c #365443",
"^  c #315146",
"/  c #305047",
"(  c #315147",
")  c #325046",
"_  c #355147",
"`  c #325445",
"'  c #345445",
"]  c #3C5043",
"[  c #395543",
"{  c #3E5245",
"}  c #315148",
"|  c #325248",
" . c #34534B",
".. c #32544A",
"X. c #33554B",
"o. c #365649",
"O. c #35554B",
"+. c #35554C",
"@. c #37554E",
"#. c #3F5148",
"$. c #3A584C",
"%. c #3B5B4D",
"&. c #395B50",
"*. c #3A5A52",
"=. c #3B5B53",
"-. c #3B5D52",
";. c #3C5E53",
":. c #3D5B54",
">. c #3D6156",
",. c #3F6157",
"<. c #3E6257",
"1. c #3F655C",
"2. c #405347",
"3. c #455C46",
"4. c #405349",
"5. c #41544A",
"6. c #44594A",
"7. c #455D4A",
"8. c #43584C",
"9. c #405A4C",
"0. c #405A4D",
"q. c #405A4E",
"w. c #415B4F",
"e. c #425A4E",
"r. c #465B4C",
"t. c #425D4E",
"y. c #435C4F",
"u. c #445C4E",
"i. c #465C4E",
"p. c #475C4E",
"a. c #485D4E",
"s. c #435E50",
"d. c #435F51",
"f. c #435E52",
"g. c #435F53",
"h. c #445C51",
"j. c #465E50",
"k. c #475F50",
"l. c #445C52",
"z. c #4D654F",
"x. c #446050",
"c. c #446052",
"v. c #446252",
"b. c #466253",
"n. c #456154",
"m. c #446255",
"M. c #456355",
"N. c #466254",
"B. c #446256",
"V. c #486453",
"C. c #4F6755",
"Z. c #466852",
"A. c #486A57",
"S. c #416358",
"D. c #476358",
"F. c #406459",
"G. c #416559",
"H. c #41655B",
"J. c #466659",
"K. c #40645D",
"L. c #40665C",
"P. c #40665E",
"I. c #486259",
"U. c #4B655A",
"Y. c #48675A",
"T. c #49675B",
"R. c #4B675B",
"E. c #4D6759",
"W. c #4B675C",
"Q. c #446859",
"!. c #456B5A",
"~. c #41695F",
"^. c #44685D",
"/. c #456B5E",
"(. c #466C5F",
"). c #4D6A58",
"_. c #4B685C",
"`. c #4D6A5C",
"'. c #4E6B5D",
"]. c #4D6A5E",
"[. c #4E6B5E",
"{. c #486E5D",
"}. c #4E6C5F",
"|. c #516D59",
" X c #536F5A",
".X c #50705E",
"XX c #416960",
"oX c #476B60",
"OX c #476D61",
"+X c #476F63",
"@X c #496F61",
"#X c #4F6F63",
"$X c #4E7665",
"%X c #4C766A",
"&X c #557467",
"*X c #597960",
"=X c #5B7B64",
"-X c #52756A",
";X c #547568",
":X c #567769",
">X c #577869",
",X c #577969",
"<X c #57796B",
"1X c #577C6B",
"2X c #577B6C",
"3X c #567B6F",
"4X c #587D6C",
"5X c #597C6E",
"6X c #577C70",
"7X c #577D71",
"8X c #577E73",
"9X c #597C71",
"0X c #587D73",
"qX c #5C8173",
"wX c #5E8172",
/* pixels */
"`.M.v.a.t.'.Y.B :X].m.6.y.f.wXa.`.M.v.a.t.'.Y.B :X].m.6.y.f.wXa.`.M.v.a.t.'.Y.B :X].m.6.y.f.wXa.`.M.v.a.t.'.Y.B :X].m.6.y.f.wXa.",
" X! {.L d.X.OX: 5XF.H.q c.Q.R u  X! {.L d.X.OX: 5XF.H.q c.Q.R u  X! {.L d.X.OX: 5XF.H.q c.Q.R u  X! {.L d.X.OX: 5XF.H.q c.Q.R u ",
"7.A.%.6 9X| $.e I.1.~.w V.~ Z.i 7.A.%.6 9X| $.e I.1.~.w V.~ Z.i 7.A.%.6 9X| $.e I.1.~.w V.~ Z.i 7.A.%.6 9X| $.e I.1.~.w V.~ Z.i ",
"m $ & _ e., M L #.k 0 o r.* -   m $ & _ e., M L #.k 0 o r.* -   m $ & _ e., M L #.k 0 o r.* -   m $ & _ e., M L #.k 0 o r.* -   ",
";X<X_.4.D.s.=XS k.U.,X6.f.}.N.] ;X<X_.4.D.s.=XS k.U.,X6.f.}.N.] ;X<X_.4.D.s.=XS k.U.,X6.f.}.N.] ;X<X_.4.D.s.=XS k.U.,X6.f.}.N.] ",
"0X>.} 1 :X@X' + z.$X!.y n.P.L.t 0X>.} 1 :X@X' + z.$X!.y n.P.L.t 0X>.} 1 :X@X' + z.$X!.y n.P.L.t 0X>.} 1 :X@X' + z.$X!.y n.P.L.t ",
"g.XX+.N [.&.( 8 C.o.E @ d.@.K.; g.XX+.N [.&.( 8 C.o.E @ d.@.K.; g.XX+.N [.&.( 8 C.o.E @ d.@.K.; g.XX+.N [.&.( 8 C.o.E @ d.@.K.; ",
"5.7 r % b X 7 K j.x > Z 6.P a  .5.7 r % b X 7 K j.x > Z 6.P a  .5.7 r % b X 7 K j.x > Z 6.P a  .5.7 r % b X 7 K j.x > Z 6.P a  .",
"3Xw.f.p.'.D.8Xh.6X1Xb.p.&Xg.qXl.3Xw.f.p.'.D.8Xh.6X1Xb.p.&Xg.qXl.3Xw.f.p.'.D.8Xh.6X1Xb.p.&Xg.qXl.3Xw.f.p.'.D.8Xh.6X1Xb.p.&Xg.qXl.",
"R.G U d .X) ,.l W.O.^ f 0.G ^.J R.G U d .X) ,.l W.O.^ f 0.G ^.J R.G U d .X) ,.l W.O.^ f 0.G ^.J R.G U d .X) ,.l W.O.^ f 0.G ^.J ",
"qX%X:.h 9.Q [ = g.OXOXP T.+X..< qX%X:.h 9.Q [ = g.OXOXP T.+X..< qX%X:.h 9.Q [ = g.OXOXP T.+X..< qX%X:.h 9.Q [ = g.OXOXP T.+X..< ",
"8.H s 9 A V C v Y g z 5 T D c < 8.H s 9 A V C v Y g z 5 T D c < 8.H s 9 A V C v Y g z 5 T D c < 8.H s 9 A V C v Y g z 5 T D c < ",
"B.q.qXu.x.).*X3.4X7XE.n 2X-X#XB B.q.qXu.x.).*X3.4X7XE.n 2X-X#XB B.q.qXu.x.).*X3.4X7XE.n 2X-X#XB B.q.qXu.x.).*X3.4X7XE.n 2X-X#XB ",
"0.oXS.j s.` W p |.G.<.3 <X=.*.; 0.oXS.j s.` W p |.G.<.3 <X=.*.; 0.oXS.j s.` W p |.G.<.3 <X=.*.; 0.oXS.j s.` W p |.G.<.3 <X=.*.; ",
"0.F /.$ >X(.-.2 c.( ;.< J./ / P 0.F /.$ >X(.-.2 c.( ;.< J./ / P 0.F /.$ >X(.-.2 c.( ;.< J./ / P 0.F /.$ >X(.-.2 c.( ;.< J./ / P ",
"2.O $ # { ; 4 ; B f . P i.% I f 2.O $ # { ; 4 ; B f . P i.% I f 2.O $ # { ; 4 ; B f . P i.% I f 2.O $ # { ; 4 ; B f . P i.% I f ",
"`.M.v.a.t.'.Y.B :X].m.6.y.f.wXa.`.M.v.a.t.'.Y.B :X].m.6.y.f.wXa.`.M.v.a.t.'.Y.B :X].m.6.y.f.wXa.`.M.v.a.t.'.Y.B :X].m.6.y.f.wXa.",
" X! {.L d.X.OX: 5XF.H.q c.Q.R u  X! {.L d.X.OX: 5XF.H.q c.Q.R u  X! {.L d.X.OX: 5XF.H.q c.Q.R u  X! {.L d.X.OX: 5XF.H.q c.Q.R u ",
"7.A.%.6 9X| $.e I.1.~.w V.~ Z.i 7.A.%.6 9X| $.e I.1.~.w V.~ Z.i 7.A.%.6 9X| $.e I.1.~.w V.~ Z.i 7.A.%.6 9X| $.e I.1.~.w V.~ Z.i ",
"m $ & _ e., M L #.k 0 o r.* -   m $ & _ e., M L #.k 0 o r.* -   m $ & _ e., M L #.k 0 o r.* -   m $ & _ e., M L #.k 0 o r.* -   ",
";X<X_.4.D.s.=XS k.U.,X6.f.}.N.] ;X<X_.4.D.s.=XS k.U.,X6.f.}.N.] ;X<X_.4.D.s.=XS k.U.,X6.f.}.N.] ;X<X_.4.D.s.=XS k.U.,X6.f.}.N.] ",
"0X>.} 1 :X@X' + z.$X!.y n.P.L.t 0X>.} 1 :X@X' + z.$X!.y n.P.L.t 0X>.} 1 :X@X' + z.$X!.y n.P.L.t 0X>.} 1 :X@X' + z.$X!.y n.P.L.t ",
"g.XX+.N [.&.( 8 C.o.E @ d.@.K.; g.XX+.N [.&.( 8 C.o.E @ d.@.K.; g.XX+.N [.&.( 8 C.o.E @ d.@.K.; g.XX+.N [.&.( 8 C.o.E @ d.@.K.; ",
"5.7 r % b X 7 K j.x > Z 6.P a  .5.7 r % b X 7 K j.x > Z 6.P a  .5.7 r % b X 7 K j.x > Z 6.P a  .5.7 r % b X 7 K j.x > Z 6.P a  .",
"3Xw.f.p.'.D.8Xh.6X1Xb.p.&Xg.qXl.3Xw.f.p.'.D.8Xh.6X1Xb.p.&Xg.qXl.3Xw.f.p.'.D.8Xh.6X1Xb.p.&Xg.qXl.3Xw.f.p.'.D.8Xh.6X1Xb.p.&Xg.qXl.",
"R.G U d .X) ,.l W.O.^ f 0.G ^.J R.G U d .X) ,.l W.O.^ f 0.G ^.J R.G U d .X) ,.l W.O.^ f 0.G ^.J R.G U d .X) ,.l W.O.^ f 0.G ^.J ",
"qX%X:.h 9.Q [ = g.OXOXP T.+X..< qX%X:.h 9.Q [ = g.OXOXP T.+X..< qX%X:.h 9.Q [ = g.OXOXP T.+X..< qX%X:.h 9.Q [ = g.OXOXP T.+X..< ",
"8.H s 9 A V C v Y g z 5 T D c < 8.H s 9 A V C v Y g z 5 T D c < 8.H s 9 A V C v Y g z 5 T D c < 8.H s 9 A V C v Y g z 5 T D c < ",
"B.q.qXu.x.).*X3.4X7XE.n 2X-X#XB B.q.qXu.x.).*X3.4X7XE.n 2X-X#XB B.q.qXu.x.).*X3.4X7XE.n 2X-X#XB B.q.qXu.x.).*X3.4X7XE.n 2X-X#XB ",
"0.oXS.j s.` W p |.G.<.3 <X=.*.; 0.oXS.j s.` W p |.G.<.3 <X=.*.; 0.oXS.j s.` W p |.G.<.3 <X=.*.; 0.oXS.j s.` W p |.G.<.3 <X=.*.; ",
"0.F /.$ >X(.-.2 c.( ;.< J./ / P 0.F /.$ >X(.-.2 c.( ;.< J./ / P 0.F /.$ >X(.-.2 c.( ;.< J./ / P 0.F /.$ >X(.-.2 c.( ;.< J./ / P ",
"2.O $ # { ; 4 ; B f . P i.% I f 2.O $ # { ; 4 ; B f . P i.% I f 2.O $ # { ; 4 ; B f . P i.% I f 2.O $ # { ; 4 ; B f . P i.% I f ",
"`.M.v.a.t.'.Y.B :X].m.6.y.f.wXa.`.M.v.a.t.'.Y.B :X].m.6.y.f.wXa.`.M.v.a.t.'.Y.B :X].m.6.y.f.wXa.`.M.v.a.t.'.Y.B :X].m.6.y.f.wXa.",
" X! {.L d.X.OX: 5XF.H.q c.Q.R u  X! {.L d.X.OX: 5XF.H.q c.Q.R u  X! {.L d.X.OX: 5XF.H.q c.Q.R u  X! {.L d.X.OX: 5XF.H.q c.Q.R u ",
"7.A.%.6 9X| $.e I.1.~.w V.~ Z.i 7.A.%.6 9X| $.e I.1.~.w V.~ Z.i 7.A.%.6 9X| $.e I.1.~.w V.~ Z.i 7.A.%.6 9X| $.e I.1.~.w V.~ Z.i ",
"m $ & _ e., M L #.k 0 o r.* -   m $ & _ e., M L #.k 0 o r.* -   m $ & _ e., M L #.k 0 o r.* -   m $ & _ e., M L #.k 0 o r.* -   ",
";X<X_.4.D.s.=XS k.U.,X6.f.}.N.] ;X<X_.4.D.s.=XS k.U.,X6.f.}.N.] ;X<X_.4.D.s.=XS k.U.,X6.f.}.N.] ;X<X_.4.D.s.=XS k.U.,X6.f.}.N.] ",
"0X>.} 1 :X@X' + z.$X!.y n.P.L.t 0X>.} 1 :X@X' + z.$X!.y n.P.L.t 0X>.} 1 :X@X' + z.$X!.y n.P.L.t 0X>.} 1 :X@X' + z.$X!.y n.P.L.t ",
"g.XX+.N [.&.( 8 C.o.E @ d.@.K.; g.XX+.N [.&.( 8 C.o.E @ d.@.K.; g.XX+.N [.&.( 8 C.o.E @ d.@.K.; g.XX+.N [.&.( 8 C.o.E @ d.@.K.; ",
"5.7 r % b X 7 K j.x > Z 6.P a  .5.7 r % b X 7 K j.x > Z 6.P a  .5.7 r % b X 7 K j.x > Z 6.P a  .5.7 r % b X 7 K j.x > Z 6.P a  .",
"3Xw.f.p.'.D.8Xh.6X1Xb.p.&Xg.qXl.3Xw.f.p.'.D.8Xh.6X1Xb.p.&Xg.qXl.3Xw.f.p.'.D.8Xh.6X1Xb.p.&Xg.qXl.3Xw.f.p.'.D.8Xh.6X1Xb.p.&Xg.qXl.",
"R.G U d .X) ,.l W.O.^ f 0.G ^.J R.G U d .X) ,.l W.O.^ f 0.G ^.J R.G U d .X) ,.l W.O.^ f 0.G ^.J R.G U d .X) ,.l W.O.^ f 0.G ^.J ",
"qX%X:.h 9.Q [ = g.OXOXP T.+X..< qX%X:.h 9.Q [ = g.OXOXP T.+X..< qX%X:.h 9.Q [ = g.OXOXP T.+X..< qX%X:.h 9.Q [ = g.OXOXP T.+X..< ",
"8.H s 9 A V C v Y g z 5 T D c < 8.H s 9 A V C v Y g z 5 T D c < 8.H s 9 A V C v Y g z 5 T D c < 8.H s 9 A V C v Y g z 5 T D c < ",
"B.q.qXu.x.).*X3.4X7XE.n 2X-X#XB B.q.qXu.x.).*X3.4X7XE.n 2X-X#XB B.q.qXu.x.).*X3.4X7XE.n 2X-X#XB B.q.qXu.x.).*X3.4X7XE.n 2X-X#XB ",
"0.oXS.j s.` W p |.G.<.3 <X=.*.; 0.oXS.j s.` W p |.G.<.3 <X=.*.; 0.oXS.j s.` W p |.G.<.3 <X=.*.; 0.oXS.j s.` W p |.G.<.3 <X=.*.; ",
"0.F /.$ >X(.-.2 c.( ;.< J./ / P 0.F /.$ >X(.-.2 c.( ;.< J./ / P 0.F /.$ >X(.-.2 c.( ;.< J./ / P 0.F /.$ >X(.-.2 c.( ;.< J./ / P ",
"2.O $ # { ; 4 ; B f . P i.% I f 2.O $ # { ; 4 ; B f . P i.% I f 2.O $ # { ; 4 ; B f . P i.% I f 2.O $ # { ; 4 ; B f . P i.% I f ",
"`.M.v.a.t.'.Y.B :X].m.6.y.f.wXa.`.M.v.a.t.'.Y.B :X].m.6.y.f.wXa.`.M.v.a.t.'.Y.B :X].m.6.y.f.wXa.`.M.v.a.t.'.Y.B :X].m.6.y.f.wXa.",
" X! {.L d.X.OX: 5XF.H.q c.Q.R u  X! {.L d.X.OX: 5XF.H.q c.Q.R u  X! {.L d.X.OX: 5XF.H.q c.Q.R u  X! {.L d.X.OX: 5XF.H.q c.Q.R u ",
"7.A.%.6 9X| $.e I.1.~.w V.~ Z.i 7.A.%.6 9X| $.e I.1.~.w V.~ Z.i 7.A.%.6 9X| $.e I.1.~.w V.~ Z.i 7.A.%.6 9X| $.e I.1.~.w V.~ Z.i ",
"m $ & _ e., M L #.k 0 o r.* -   m $ & _ e., M L #.k 0 o r.* -   m $ & _ e., M L #.k 0 o r.* -   m $ & _ e., M L #.k 0 o r.* -   ",
";X<X_.4.D.s.=XS k.U.,X6.f.}.N.] ;X<X_.4.D.s.=XS k.U.,X6.f.}.N.] ;X<X_.4.D.s.=XS k.U.,X6.f.}.N.] ;X<X_.4.D.s.=XS k.U.,X6.f.}.N.] ",
"0X>.} 1 :X@X' + z.$X!.y n.P.L.t 0X>.} 1 :X@X' + z.$X!.y n.P.L.t 0X>.} 1 :X@X' + z.$X!.y n.P.L.t 0X>.} 1 :X@X' + z.$X!.y n.P.L.t ",
"g.XX+.N [.&.( 8 C.o.E @ d.@.K.; g.XX+.N [.&.( 8 C.o.E @ d.@.K.; g.XX+.N [.&.( 8 C.o.E @ d.@.K.; g.XX+.N [.&.( 8 C.o.E @ d.@.K.; ",
"5.7 r % b X 7 K j.x > Z 6.P a  .5.7 r % b X 7 K j.x > Z 6.P a  .5.7 r % b X 7 K j.x > Z 6.P a  .5.7 r % b X 7 K j.x > Z 6.P a  .",
"3Xw.f.p.'.D.8Xh.6X1Xb.p.&Xg.qXl.3Xw.f.p.'.D.8Xh.6X1Xb.p.&Xg.qXl.3Xw.f.p.'.D.8Xh.6X1Xb.p.&Xg.qXl.3Xw.f.p.'.D.8Xh.6X1Xb.p.&Xg.qXl.",
"R.G U d .X) ,.l W.O.^ f 0.G ^.J R.G U d .X) ,.l W.O.^ f 0.G ^.J R.G U d .X) ,.l W.O.^ f 0.G ^.J R.G U d .X) ,.l W.O.^ f 0.G ^.J ",
"qX%X:.h 9.Q [ = g.OXOXP T.+X..< qX%X:.h 9.Q [ = g.OXOXP T.+X..< qX%X:.h 9.Q [ = g.OXOXP T.+X..< qX%X:.h 9.Q [ = g.OXOXP T.+X..< ",
"8.H s 9 A V C v Y g z 5 T D c < 8.H s 9 A V C v Y g z 5 T D c < 8.H s 9 A V C v Y g z 5 T D c < 8.H s 9 A V C v Y g z 5 T D c < ",
"B.q.qXu.x.).*X3.4X7XE.n 2X-X#XB B.q.qXu.x.).*X3.4X7XE.n 2X-X#XB B.q.qXu.x.).*X3.4X7XE.n 2X-X#XB B.q.qXu.x.).*X3.4X7XE.n 2X-X#XB ",
"0.oXS.j s.` W p |.G.<.3 <X=.*.; 0.oXS.j s.` W p |.G.<.3 <X=.*.; 0.oXS.j s.` W p |.G.<.3 <X=.*.; 0.oXS.j s.` W p |.G.<.3 <X=.*.; ",
"0.F /.$ >X(.-.2 c.( ;.< J./ / P 0.F /.$ >X(.-.2 c.( ;.< J./ / P 0.F /.$ >X(.-.2 c.( ;.< J./ / P 0.F /.$ >X(.-.2 c.( ;.< J./ / P ",
"2.O $ # { ; 4 ; B f . P i.% I f 2.O $ # { ; 4 ; B f . P i.% I f 2.O $ # { ; 4 ; B f . P i.% I f 2.O $ # { ; 4 ; B f . P i.% I f "
};
