/* XPM */
static char *_d2db854c2784f89eccf1913d3051d1b[] = {
/* columns rows colors chars-per-pixel */
"64 64 102 2 ",
"   c #4D5A35",
".  c #505E35",
"X  c #515F35",
"o  c #506032",
"O  c #526137",
"+  c #5A6C37",
"@  c #536138",
"#  c #55643A",
"$  c #57653B",
"%  c #59673E",
"&  c #5F7536",
"*  c #5E703B",
"=  c #617639",
"-  c #62743F",
";  c #677B3F",
":  c #515B40",
">  c #525B41",
",  c #5B5B5B",
"<  c gray36",
"1  c #5D5D5D",
"2  c gray37",
"3  c #5F5F5F",
"4  c #5B6841",
"5  c #5B6842",
"6  c #5C6942",
"7  c #5C6943",
"8  c #5D6A43",
"9  c #5C654A",
"0  c #5E674D",
"q  c #616E47",
"w  c #697E41",
"e  c #6A7F43",
"r  c #6B7F43",
"t  c #637049",
"y  c #63704A",
"u  c #64714A",
"i  c #65724C",
"p  c #67754E",
"a  c #6B7B4D",
"s  c #6D7D4F",
"d  c #616B50",
"f  c #6C7952",
"g  c #6D7A54",
"h  c #6D7B54",
"j  c #697358",
"k  c #707F52",
"l  c #606060",
"z  c gray38",
"x  c #626262",
"c  c #646464",
"v  c #656565",
"b  c gray40",
"n  c #686868",
"m  c DimGray",
"M  c #6A6A6A",
"N  c gray42",
"B  c #6C6C6C",
"V  c #6D6D6D",
"C  c gray43",
"Z  c #6F6F6F",
"A  c gray44",
"S  c #717171",
"D  c #727272",
"F  c gray45",
"G  c #747474",
"H  c #767676",
"J  c #777777",
"K  c gray47",
"L  c #797979",
"P  c #7B7B7B",
"I  c gray50",
"U  c #738355",
"Y  c #768658",
"T  c #79895B",
"R  c #7A8A5D",
"E  c #7C8C5E",
"W  c #808080",
"Q  c #818181",
"!  c #848484",
"~  c gray52",
"^  c #868686",
"/  c #888888",
"(  c gray54",
")  c gray55",
"_  c #8D8D8D",
"`  c #8E8E8E",
"'  c gray56",
"]  c #909090",
"[  c gray57",
"{  c #939393",
"}  c gray58",
"|  c gray59",
" . c #979797",
".. c #989898",
"X. c #9A9A9A",
"o. c #9B9B9B",
"O. c gray61",
"+. c #9D9D9D",
"@. c gray62",
"#. c #9F9F9F",
"$. c #A0A0A0",
"%. c #A4A4A4",
/* pixels */
"#...$.O.] O. .} } } } X._ ' ` l #...$.O.] O. .} } } } X._ ' ` l #...$.O.] O. .} } } } X._ ' ` l #...$.O.] O.S A } } } X._ ' ` l ",
"O./ / / L / / / F I I L I I P z O./ / / L / / / F I I L I I P z O./ / / L / / / F I I L I I P z O./ / / L N N z c I I L I I P z ",
"] L L L / L I I I / I I I F N 1 ] L L L / L I I I / I I I F N 1 ] L L L / L I I I / I I I F N 1 ] L L L N b ' { Q N n I I v x 1 ",
" .F I / I I L L L L L I I / C 3  .F I / I I L L L L L I I / C 3  .F I / I I L L L L L I I / C 3 c n I N n n [ L L L L n M ! ~ 3 ",
"} L L L L L / / / / / F I / G 1 } L L L L L / / / / / F I / G 1 } L L L L L / / / / / F I / G 1 } ' b b [ [ / / / / / c { / G 1 ",
"{ L L L I F I I L L F I L L M z { L L L I F I I L L F I L L M z { L L L I F I I L L F I L L M z { L b [ I F I I L L F n L L M z ",
"_ D K G C C C C G G A v B G D z _ D K G C C C C G G A v B G D z _ D K G C C C C G G A v B G D z W 2 v ' C 2 2 2 ^ G x 2 ) G D z ",
"1 1 1 1 1 1 1 1 , 1 z x l l 3 1 1 1 1 1 1 1 1 1 , 1 z x l l 3 1 1 1 1 1 1 1 1 1 , 1 z x l l 3 1 1 , , 1 1 1 1 1 , 1 z x l l 3 1 ",
"}  . . .O.O.| 3 %.+.o._ ..O.] O.}  . . .O.O.| 3 %.+.o._ ..O.] O.}  . . .O.O.| 3 %.+.o._ ..O.] O.} S  . .O.O.| 3 l +.o.V S O.] O.",
"L L I F I I Z 1 } / I I L L L L L L I F I I Z 1 } / I I L L L L L L I F I I Z 1 } / I I L L L L L b { F I I Z 1 @./ n { [ L L L ",
"/ / L F L / H l  .I I I I / L L / / L F L / H l  .I I I I / L L / / L F L / H l  .I I I I / L L / / b c L / H l  .n n I I / L L ",
"I I I / / I C 3 O./ F F I I I L I I I / / I C 3 O./ F F I I I L I I I / / I C 3 O./ F F I I I L I I { N / I C 3 F N ' c I I I L ",
"L L L / / L m 1 } L I I L L L L L L L / / L m 1 } L I I L L L L L L L / / L m 1 } L I I L L L L L L L N / L m 1 } [ I I b L L L ",
"I I L L L F m z { / / I / L / F I I L L L F m z { / / I / L / F I I L L L F m z { / / I / L / F I I L b L F m z { / / I / b N F ",
"m m m C M G K x ( B J D C C m m m m m C M G K x ( B J D C C m m m m m C M G K x ( B J D C C m m m c c x l ' K x ( B J D C C l l ",
"l l 3 3 3 3 1 1 1 2 x l 3 1 1 1 l l 3 3 3 3 1 1 1 2 x l 3 1 1 1 l l 3 3 3 3 1 1 1 2 x l 3 1 1 1 l l 3 < < 3 1 1 1 2 x l 3 1 1 , ",
"#...$.O.] O.S A } } } X._ ' ` l #...$.O.] O. .} } } } X._ ' ` l #...$.O.] O. .} } } } X._ ' ` l #...$.O.] O. .} } } } X._ ' ` l ",
"O./ / / L N N z c I I L I I P z O./ / / L / / / F I I L I I P z O./ / / L / / / F I I L I I P z O./ / / L / / / F I I L I I P z ",
"] L L L N b ' { Q N n I I v x 1 ] L L L / L I I I / I I I F N 1 ] L L L / L I I I / I I I F N 1 ] L L L / L I I I / I I I F N 1 ",
"c n I N n n [ L L L L n M ! ~ 3  .F I / I I L L L L L I I / C 3  .F I / I I L L L L L I I / C 3  .F I / I I L L L L L I I / C 3 ",
"} ' b b [ [ / / / / / c { / G 1 } L L L L L / / / / / F I / G 1 } L L L L L / / / / / F I / G 1 } L L L L L / / / / / F I / G 1 ",
"{ L b [ I F I I L L F n L L M z { L L L I F I I L L F I L L M z { L L L I F I I L L F I L L M z { L L L I F I I L L F I L L M z ",
"W 2 v ' C 2 2 2 ^ G x 2 ) G D z _ D K G C C C C G G A v B G D z _ D K G C C C C G G A v B G D z _ D K G C C C C G G A v B G D z ",
"1 , , 1 1 1 1 1 , 1 z x l l 3 1 1 1 1 1 1 1 1 1 , 1 z x l l 3 1 1 1 1 1 1 1 1 1 , 1 z x l l 3 1 1 1 1 1 1 1 1 1 , 1 z x l l 3 1 ",
"} S  . .O.O.| 3 l +.o.V S O.] O.}  . . .O.O.| 3 %.+.o._ ..O.] O.}  . . .O.O.| 3 %.+.o._ ..O.] O.}  . . .O.O.| 3 %.+.o._ ..O.] O.",
"L b { F I I Z 1 @./ n { [ L L L L L I F I I Z 1 } / I I L L L L L L I F I I Z 1 } / I I L L L L L L I F I I Z 1 } / I I L L L L ",
"/ / b c L / H l  .n n I I / L L / / L F L / H l  .I I I I / L L / / L F L / H l  .I I I I / L L / / L F L / H l  .I I I I / L L ",
"I I { N / I C 3 F N ' c I I I L I I I / / I C 3 O./ F F I I I L I I I / / I C 3 O./ F F I I I L I I I / / I C 3 O./ F F I I I L ",
"L L L N / L m 1 } [ I I b L L L L L L / / L m 1 } L I I L L L L L L L / / L m 1 } L I I L L L L L L L / / L m 1 } L I I L L L L ",
"I I L b L F m z { / / I / b N F I I L L L F m z { / / I / L / F I I L L L F m z { / / I / L / F I I L L L F m z { / / I / L / F ",
"m c c x l ' K x ( B J D C C l l m m m C M G K x ( B J D C C m m m m m C M G K x ( B J D C C m m m m m C M G K x ( B J D C C m m ",
"l l 3 < < 3 1 1 1 2 x l 3 1 1 , l l 3 3 3 3 1 1 1 2 x l 3 1 1 1 l l 3 3 3 3 1 1 1 2 x l 3 1 1 1 l l 3 3 3 3 1 1 1 2 x l 3 1 1 1 ",
"#...$.O.] O. .} } } } X._ ' ` l #...E R w r e } } } } X._ h g l #...$.O.] O. .} } } } X._ ' ` l #...$.O.] O. .} } } } X._ ' ` l ",
"O./ / / L / / / F I I L I I P z O./ / / i / / / F I I L I I * 7 O./ / / L / / / F I I L I I P z O./ / / L / / / F I I L I I P z ",
"] L L L / L I I I / I I I F N 1 ] L i L / L I I k / I I I t O X ] L L L / L I I I / I I I F N 1 ] L L L / L I I I / I I I F N 1 ",
" .F I / I I L L L L L I I / C 3  .F p / I k s s s L L I p d q 5  .F I / I I L L L L L I I / C 3  .F I / I I L L L L L I I / C 3 ",
"} L L L L L / / / / / F I / G 1 } L L L s s / / / / / F 0 d G 1 } L L L L L / / / / / F I / G 1 } L L L L L / / / / / F I / G 1 ",
"{ L L L I F I I L L F I L L M z { i L L I F I I L L F I 9 L M z { L L L I F I I L L F I L L M z { L L L I F I I L L F I L L M z ",
"_ D K G C C C C G G A v B G D z _ D K G @ @ @ C y y A v B G D z _ D K G C C C C G G A v B G D z _ D K G C C C C G G A v B G D z ",
"1 1 1 1 1 1 1 1 , 1 z x l l 3 1 1 1 1 1   X o + . 1 7 x l 6 5 4 1 1 1 1 1 1 1 1 , 1 z x l l 3 1 1 1 1 1 1 1 1 1 , 1 z x l l 3 1 ",
"}  . . .O.O.| 3 %.+.o._ ..O.] O.} = & e % % - 3 %.j o._ T R Y O.}  . . .O.O.| 3 %.+.o._ ..O.] O.}  . . .O.O.| 3 %.+.o._ ..O.] O.",
"L L I F I I Z 1 } / I I L L L L L L # t ; p Z 1 } / p p L L L L L L I F I I Z 1 } / I I L L L L L L I F I I Z 1 } / I I L L L L ",
"/ / L F L / H l  .I I I I / L L / / L t L / u l  .I I 0 # $ L L / / L F L / H l  .I I I I / L L / / L F L / H l  .I I I I / L L ",
"I I I / / I C 3 O./ F F I I I L I I I U / I C 3 O./ F F I p I L I I I / / I C 3 O./ F F I I I L I I I / / I C 3 O./ F F I I I L ",
"L L L / / L m 1 } L I I L L L L L L s U U L m 1 } L I I L L i L L L L / / L m 1 } L I I L L L L L L L / / L m 1 } L I I L L L L ",
"I I L L L F m z { / / I / L / F I I L s L a m 7 { / / I / L / F I I L L L F m z { / / I / L / F I I L L L F m z { / / I / L / F ",
"m m m C M G K x ( B J D C C m m m m m C M G K 8 f B J D C C m m m m m C M G K x ( B J D C C m m m m m C M G K x ( B J D C C m m ",
"l l 3 3 3 3 1 1 1 2 x l 3 1 1 1 l l > 3 3 3 1 4 1 2 x l > : 1 1 l l 3 3 3 3 1 1 1 2 x l 3 1 1 1 l l 3 3 3 3 1 1 1 2 x l 3 1 1 1 ",
"#...$.O.] O. .} } } } X._ ' ` l #...$.O.] O. .} } } } X._ ' ` l #...E R w r e } } } } X._ h g l #...E R w r e } } } } X._ h g l ",
"O./ / / L / / / F I I L I I P z O./ / / L / / / F I I L I I P z O./ / / i / / / F I I L I I * 7 O./ / / i / / / F I I L I I * 7 ",
"] L L L / L I I I / I I I F N 1 ] L L L / L I I I / I I I F N 1 ] L i L / L I I k / I I I t O X ] L i L / L I I k / I I I t O X ",
" .F I / I I L L L L L I I / C 3  .F I / I I L L L L L I I / C 3  .F p / I k s s s L L I p d q 5  .F p / I k s s s L L I p d q 5 ",
"} L L L L L / / / / / F I / G 1 } L L L L L / / / / / F I / G 1 } L L L s s / / / / / F 0 d G 1 } L L L s s / / / / / F 0 d G 1 ",
"{ L L L I F I I L L F I L L M z { L L L I F I I L L F I L L M z { i L L I F I I L L F I 9 L M z { i L L I F I I L L F I 9 L M z ",
"_ D K G C C C C G G A v B G D z _ D K G C C C C G G A v B G D z _ D K G @ @ @ C y y A v B G D z _ D K G @ @ @ C y y A v B G D z ",
"1 1 1 1 1 1 1 1 , 1 z x l l 3 1 1 1 1 1 1 1 1 1 , 1 z x l l 3 1 1 1 1 1   X o + . 1 7 x l 6 5 4 1 1 1 1   X o + . 1 7 x l 6 5 4 ",
"}  . . .O.O.| 3 %.+.o._ ..O.] O.}  . . .O.O.| 3 %.+.o._ ..O.] O.} = & e % % - 3 %.j o._ T R Y O.} = & e % % - 3 %.j o._ T R Y O.",
"L L I F I I Z 1 } / I I L L L L L L I F I I Z 1 } / I I L L L L L L # t ; p Z 1 } / p p L L L L L L # t ; p Z 1 } / p p L L L L ",
"/ / L F L / H l  .I I I I / L L / / L F L / H l  .I I I I / L L / / L t L / u l  .I I 0 # $ L L / / L t L / u l  .I I 0 # $ L L ",
"I I I / / I C 3 O./ F F I I I L I I I / / I C 3 O./ F F I I I L I I I U / I C 3 O./ F F I p I L I I I U / I C 3 O./ F F I p I L ",
"L L L / / L m 1 } L I I L L L L L L L / / L m 1 } L I I L L L L L L s U U L m 1 } L I I L L i L L L s U U L m 1 } L I I L L i L ",
"I I L L L F m z { / / I / L / F I I L L L F m z { / / I / L / F I I L s L a m 7 { / / I / L / F I I L s L a m 7 { / / I / L / F ",
"m m m C M G K x ( B J D C C m m m m m C M G K x ( B J D C C m m m m m C M G K 8 f B J D C C m m m m m C M G K 8 f B J D C C m m ",
"l l 3 3 3 3 1 1 1 2 x l 3 1 1 1 l l 3 3 3 3 1 1 1 2 x l 3 1 1 1 l l > 3 3 3 1 4 1 2 x l > : 1 1 l l > 3 3 3 1 4 1 2 x l > : 1 1 "
};
